HIERARCHY
ROOT Hips
{
	OFFSET -3.958830 18.904000 13.208200
	CHANNELS 6 Xposition Yposition Zposition Zrotation Yrotation Xrotation 
	JOINT LHipJoint
	{
		OFFSET 0.000000 0.000000 0.000000
		CHANNELS 3 Zrotation Yrotation Xrotation
		JOINT LeftUpLeg
		{
			OFFSET 1.800000 -1.400000 0.085000
			CHANNELS 3 Zrotation Yrotation Xrotation
			JOINT LeftLeg
			{
				OFFSET 2.215000 -6.000000 0.000000
				CHANNELS 3 Zrotation Yrotation Xrotation
				JOINT LeftFoot
				{
					OFFSET 2.500000 -6.900000 0.000000
					CHANNELS 3 Zrotation Yrotation Xrotation
					JOINT LeftToeBase
					{
						OFFSET 0.200000 -0.500000 1.950000
						CHANNELS 3 Zrotation Yrotation Xrotation
						End Site
						{
							OFFSET 0.000000 0.000000 0.000000
						}
					}
				}
			}
		}
	}
	JOINT RHipJoint
	{
		OFFSET 0.000000 0.000000 0.000000
		CHANNELS 3 Zrotation Yrotation Xrotation
		JOINT RightUpLeg
		{
			OFFSET -1.800000 -1.400000 0.085000
			CHANNELS 3 Zrotation Yrotation Xrotation
			JOINT RightLeg
			{
				OFFSET -2.215000 -6.000000 0.000000
				CHANNELS 3 Zrotation Yrotation Xrotation
				JOINT RightFoot
				{
					OFFSET -2.500000 -6.900000 0.000000
					CHANNELS 3 Zrotation Yrotation Xrotation
					JOINT RightToeBase
					{
						OFFSET -0.200000 -0.500000 1.950000
						CHANNELS 3 Zrotation Yrotation Xrotation
						End Site
						{
							OFFSET 0.000000 0.000000 0.000000
						}
					}
				}
			}
		}
	}
	JOINT LowerBack
	{
		OFFSET 0.000000 0.000000 0.000000
		CHANNELS 3 Zrotation Yrotation Xrotation
		JOINT Spine
		{
			OFFSET -0.087000 1.940000 -0.288900
			CHANNELS 3 Zrotation Yrotation Xrotation
			JOINT Spine1
			{
				OFFSET 0.000000 1.950000 0.060000
				CHANNELS 3 Zrotation Yrotation Xrotation
				JOINT Neck
				{
					OFFSET 0.000000 0.000000 0.000000
					CHANNELS 3 Zrotation Yrotation Xrotation
					JOINT Neck1
					{
						OFFSET 0.000000 1.600000 0.340000
						CHANNELS 3 Zrotation Yrotation Xrotation
						JOINT Head
						{
							OFFSET 0.000000 1.667000 -0.240000
							CHANNELS 3 Zrotation Yrotation Xrotation
							End Site
							{
								OFFSET 0.000000 0.000000 0.000000
							}
						}
					}
				}
				JOINT LeftShoulder
				{
					OFFSET 0.000000 0.000000 0.000000
					CHANNELS 3 Zrotation Yrotation Xrotation
					JOINT LeftArm
					{
						OFFSET 2.700000 1.550000 -0.730000
						CHANNELS 3 Zrotation Yrotation Xrotation
						JOINT LeftForeArm
						{
							OFFSET 5.450000 0.000000 0.000000
							CHANNELS 3 Zrotation Yrotation Xrotation
							JOINT LeftHand
							{
								OFFSET 3.450000 0.000000 0.000000
								CHANNELS 3 Zrotation Yrotation Xrotation
								JOINT LeftHandIndex1
								{
									OFFSET 0.750000 0.000000 0.000000
									CHANNELS 3 Zrotation Yrotation Xrotation
									End Site
									{
										OFFSET 0.000000 0.000000 0.000000
									}
								}
							}
						}
					}
				}
				JOINT RightShoulder
				{
					OFFSET 0.000000 0.000000 0.000000
					CHANNELS 3 Zrotation Yrotation Xrotation
					JOINT RightArm
					{
						OFFSET -2.700000 1.550000 -0.730000
						CHANNELS 3 Zrotation Yrotation Xrotation
						JOINT RightForeArm
						{
							OFFSET -5.450000 0.000000 0.000000
							CHANNELS 3 Zrotation Yrotation Xrotation
							JOINT RightHand
							{
								OFFSET -3.450000 0.000000 0.000000
								CHANNELS 3 Zrotation Yrotation Xrotation
								JOINT RightHandIndex1
								{
									OFFSET -0.750000 0.000000 0.000000
									CHANNELS 3 Zrotation Yrotation Xrotation
									End Site
									{
										OFFSET 0.000000 0.000000 0.000000
									}
								}
							}
						}
					}
				}
			}
		}
	}
}
MOTION
Frames: 14
Frame Time: 0.016667
0.244110 12.898960 -2.184360 -92.345152 -63.736841 33.917505 -15.868025 9.783487 5.165347 10.855368 -13.231065 -43.190788 55.347012 -33.906967 121.863891 5.154600 24.158173 -1.761324 0.848020 0.851480 0.803180 18.285912 -6.246292 5.744941 -25.146566 24.457422 -46.713017 13.501495 -43.578851 105.431037 -4.628475 -19.298375 -1.002403 0.298070 -0.499420 -0.128770 -3.936419 -2.650065 -10.597302 13.713480 -8.908906 76.742989 -19.204291 12.152680 10.683169 8.829735 6.061589 -29.494542 -0.855243 1.134087 87.457609 6.472150 -2.891930 -7.368360 -37.737534 -37.415804 9.275133 -21.876594 0.312254 -2.424645 12.039836 5.003527 0.097384 -3.322282 2.462019 0.734000 -0.500860 0.631850 0.173940 19.298453 41.858534 13.137663 24.524600 2.830801 -19.221102 -32.935803 19.198624 -6.689016 2.787225 -1.762125 0.088500 0.276550 -0.507480 -0.156340 
0.204520 12.829500 -2.175340 -90.859869 -62.903764 34.395660 -15.863584 9.712370 5.246296 12.834704 -13.804601 -44.970679 51.648207 -32.316428 125.633719 4.982365 23.476008 -1.666388 0.839190 0.843520 0.785280 18.345075 -6.364573 5.640878 -23.688108 22.603353 -49.973528 5.579086 -37.708569 109.348946 -4.439615 -18.764916 -0.913099 0.303290 -0.467020 -0.141980 -4.040394 -2.501479 -10.574633 16.432048 -11.129570 73.764797 -18.837956 11.024945 10.032388 8.593551 5.237007 -28.032009 -2.653250 2.509096 87.242818 7.678420 -2.774320 -7.903880 -37.225618 -36.622449 9.073312 -23.842370 -0.920798 -2.984005 14.149899 4.305963 0.024125 -3.327269 2.525937 0.741670 -0.495200 0.612980 0.174060 19.365720 40.468986 13.033399 27.727573 2.034352 -16.950280 -30.362283 18.025069 -5.718941 2.656948 -1.626980 0.066880 0.309070 -0.487410 -0.156680 
0.148810 12.733330 -2.217230 -86.651278 -64.123001 33.488172 -15.925974 9.475768 5.465292 15.995946 -15.010120 -46.775935 45.531471 -26.005509 133.882910 4.364766 20.741734 -1.236819 0.851020 0.875270 0.754140 18.375921 -6.409659 5.520494 -20.509990 19.489534 -56.431852 -5.825077 -23.242030 108.601610 -3.767655 -16.408180 -0.492148 0.329380 -0.429270 -0.157300 -4.112700 -2.381847 -10.623813 17.345719 -10.856145 69.969349 -16.375752 10.244217 9.774409 7.597624 3.702464 -26.362982 -6.474875 4.775527 87.059996 10.267510 -3.211560 -9.232560 -34.839471 -36.195413 8.639872 -27.038819 -4.335252 -4.520384 17.324247 -0.765319 -0.892110 -3.219658 2.663549 0.751590 -0.504130 0.606270 0.191550 19.521948 39.723611 13.533285 33.732360 -0.613624 -14.023858 -24.859442 15.987200 -3.977079 2.525284 -1.455291 0.054480 0.353080 -0.476060 -0.138030 
0.138390 12.655780 -2.213980 -87.880936 -65.104235 35.591033 -15.963534 9.249373 5.822462 21.595087 -15.536875 -46.354345 39.514965 -15.186214 140.604730 3.626384 17.621881 -0.656235 0.850460 0.872530 0.759360 18.357523 -6.531176 5.263255 -11.889261 17.420548 -58.829309 -14.159152 -8.766529 95.848342 -3.008951 -13.668694 0.085147 0.343160 -0.413270 -0.176020 -4.162587 -2.355801 -10.622329 17.817453 -12.560465 69.866990 -15.814268 10.044758 8.520190 7.118224 3.031593 -25.596053 -8.097235 5.684945 86.735940 10.162860 -2.534680 -9.153930 -34.060803 -36.351293 8.109935 -26.847017 -7.288212 -6.887563 20.219865 -7.356357 -2.421520 -3.128262 2.705065 0.764860 -0.495520 0.597870 0.203760 19.954230 39.653686 13.981433 37.853059 -1.618213 -9.969815 -16.161175 10.905187 -1.474899 2.508273 -1.244913 0.020340 0.377540 -0.485690 -0.147550 
0.142360 12.567690 -2.252330 -90.028425 -69.256344 38.883212 -16.225445 8.685614 6.558092 28.061766 -16.713787 -46.215537 35.197742 -0.014902 148.775613 3.112094 15.361524 -0.142809 0.817130 0.827600 0.772650 18.152426 -6.321452 5.017559 -3.937618 16.360274 -60.077900 -19.843015 -0.205086 79.443948 -2.361612 -11.250224 0.669591 0.342750 -0.367320 -0.178760 -3.995360 -2.813440 -10.858208 13.344485 -9.793615 70.578510 -12.184290 10.848390 8.932370 5.945419 2.194259 -25.342448 -9.088386 6.373858 85.270765 8.349280 -0.558490 -9.095400 -33.539393 -37.426301 7.801085 -24.802744 -9.939402 -8.833766 22.352455 -11.864947 -3.809312 -3.154625 2.673466 0.751750 -0.450620 0.567730 0.191330 22.292080 41.207555 14.493118 40.260384 -1.861146 -7.244030 -10.622626 4.489812 -0.043804 2.579151 -1.091566 -0.024390 0.417400 -0.460410 -0.165790 
0.164620 12.455660 -2.255740 -98.150019 -74.053727 47.944639 -16.404022 7.783322 7.429457 33.199194 -16.373889 -47.469793 31.251652 20.798122 154.569289 3.145642 15.452304 -0.146772 0.793480 0.787730 0.755410 18.063756 -6.283790 4.664133 3.965815 15.811483 -58.901028 -22.251015 2.416978 59.835575 -1.614203 -8.082453 1.537262 0.353220 -0.335540 -0.175410 -4.005027 -2.860496 -11.097168 9.669456 -7.735532 71.431338 -9.765072 11.454637 9.944770 4.672627 0.222292 -25.098117 -13.486965 9.859988 81.982077 8.056740 1.613240 -10.166290 -32.129521 -38.441836 7.140491 -22.419173 -11.201636 -13.209226 27.126470 -22.469614 -7.457601 -3.117682 2.700219 0.767290 -0.423830 0.520500 0.157790 24.013035 43.113008 15.187641 41.101449 -1.424633 -5.801563 -6.462636 0.821966 0.421508 2.571614 -0.997774 -0.068740 0.424540 -0.403730 -0.200400 
0.141510 12.311610 -2.187430 -120.536259 -76.948496 71.325310 -16.240387 6.380245 8.471724 39.530938 -14.459104 -48.814513 27.748700 43.532786 160.197518 4.158348 18.862820 -0.748542 0.828410 0.805680 0.806760 18.415200 -6.298540 4.286159 10.886278 15.720534 -56.441090 -19.461372 0.944341 44.351817 -1.028496 -5.031824 2.464866 0.368900 -0.384550 -0.146860 -3.877141 -2.577060 -11.428000 8.535349 -7.375666 71.200880 -8.965226 12.044939 9.748322 3.612336 -0.944859 -24.077294 -16.333306 12.054835 80.962186 7.710290 3.452020 -12.184980 -29.744601 -38.474799 6.654240 -22.680070 -13.559553 -15.315287 33.984458 -28.800267 -11.670830 -3.106358 2.678333 0.802570 -0.442800 0.537570 0.117290 23.894085 43.254203 15.448484 43.862428 -1.940075 -5.883041 -4.886202 0.104146 0.468619 2.536900 -1.013597 -0.058360 0.384970 -0.389810 -0.242880 
0.131160 12.246430 -2.167280 -143.701834 -79.961699 93.210017 -15.946930 5.702380 9.089003 41.541436 -16.283576 -46.000423 18.969854 64.882473 158.690162 6.109894 26.666043 -1.726721 0.874300 0.827830 0.897020 18.819886 -6.567980 3.766665 13.881719 14.006913 -51.798450 -13.703237 -0.735921 35.079109 -0.713191 -3.058149 3.105410 0.379280 -0.449610 -0.108760 -3.254526 -2.822689 -11.474827 3.707315 -4.233600 73.841848 -6.209925 12.746784 9.723804 2.233062 -1.191188 -23.267362 -16.181162 11.566736 81.500830 7.313170 5.007060 -15.890840 -27.946060 -39.241285 5.736763 -19.918227 -17.127336 -16.728213 40.925597 -32.676003 -15.747066 -3.133317 2.592149 0.873190 -0.475030 0.591600 0.073090 25.142937 43.597624 15.963955 44.376043 -2.294814 -5.765037 -4.842337 -0.837266 0.579715 2.516768 -0.993816 -0.050140 0.364750 -0.384550 -0.298030 
0.131040 12.162190 -2.102370 -173.211783 -80.432996 122.749908 -15.363390 5.668809 9.568358 42.918294 -18.933007 -46.146824 9.186441 70.970708 149.935927 6.298415 27.791008 -1.956160 0.894170 0.838420 0.957130 19.363601 -6.155196 3.584939 14.712214 13.629519 -50.460049 -7.559172 -2.139051 30.426254 -0.562075 -2.079476 3.422847 0.334180 -0.550140 -0.046700 -2.461098 -2.710460 -11.623444 0.229108 -2.256393 75.549020 -4.930873 12.938909 8.804413 1.752447 -0.455249 -22.794820 -13.363645 8.705882 82.114039 5.213430 5.768440 -16.894620 -25.916047 -40.291605 5.277935 -16.859732 -19.925645 -17.878251 50.133346 -36.791698 -21.103464 -3.167117 2.591597 0.860080 -0.499230 0.648080 0.038730 24.169386 43.999582 16.503256 46.039688 -2.119422 -6.377895 -8.536605 1.774955 0.492971 2.512103 -1.151687 0.037140 0.243730 -0.414190 -0.312930 
0.099360 12.051480 -2.073960 163.905573 -76.308341 146.668101 -15.513146 6.712674 9.009882 44.303011 -20.404398 -48.401800 14.032689 56.445576 150.704473 5.110213 23.107904 -1.522619 0.839010 0.772410 0.912460 19.242188 -5.298444 4.111275 19.105835 16.006265 -50.657541 -4.438533 -2.657266 29.003971 -0.480900 -1.795208 3.545702 0.270590 -0.542110 -0.011420 -2.187862 -2.882266 -11.688636 -2.875181 0.017621 75.251248 -2.535044 14.473677 7.873559 1.429139 -0.507822 -21.798409 -12.663803 7.114089 79.937949 2.789510 5.778190 -14.880360 -24.532845 -39.107145 4.646311 -15.850679 -22.488615 -17.128666 60.458319 -40.838641 -27.865451 -3.171228 2.511560 0.791770 -0.454840 0.611490 0.035580 23.758569 43.268162 16.768656 44.518111 -2.296416 -5.579059 -5.136336 1.632543 0.395676 2.525964 -1.136301 0.074000 0.159600 -0.406580 -0.297470 
0.082850 12.016330 -2.089830 148.692008 -74.037380 161.359178 -15.748716 8.877314 7.161218 36.808010 -24.660593 -51.635299 17.688148 19.229420 136.700030 3.282958 17.272010 -0.759905 0.731360 0.662940 0.813110 18.731250 -5.571073 4.765801 23.581284 16.528724 -49.317245 -4.077572 -2.877116 29.504294 -0.421822 -1.943801 3.532492 0.197430 -0.476050 0.010640 -2.191882 -3.873401 -11.035146 -7.625029 3.280134 75.171539 1.730707 16.058107 8.537051 0.596845 0.307644 -21.027581 -9.337741 4.097946 77.432124 1.515850 5.568590 -10.968190 -23.493142 -38.999995 4.269649 -13.481265 -25.483767 -15.872371 69.597473 -42.863503 -33.688647 -3.261536 2.459920 0.687300 -0.365430 0.524620 0.025190 24.768672 42.536102 17.160523 41.473644 -2.979834 -4.788035 -2.080694 0.496835 0.211199 2.542643 -1.105763 0.085160 0.090810 -0.362900 -0.272720 
0.119370 12.032900 -2.058120 126.787263 -80.523965 -175.772372 -16.393764 9.645612 7.289101 23.887383 -31.788947 -56.058726 24.161409 -14.389654 107.880979 3.002987 16.658156 -0.645742 0.638890 0.564210 0.733060 18.084693 -5.896535 4.218536 20.258903 12.628321 -54.272015 -2.233394 -4.347992 31.989245 -0.402156 -2.446783 3.367586 0.148990 -0.393390 0.012020 -2.147884 -5.030207 -10.732257 -9.639873 0.708165 75.624978 6.562625 12.205323 10.520292 -0.519385 2.185918 -20.900091 -2.943954 -1.255414 74.138384 0.810240 4.117060 -7.234530 -19.119817 -41.959970 4.895822 -12.196998 -27.850641 -17.198286 78.970035 -44.806710 -40.808206 -3.504058 2.439435 0.604340 -0.287390 0.453560 0.046180 22.082079 42.097733 17.224607 40.343788 -1.503970 -3.981473 -2.334580 -0.173470 0.208543 2.591557 -1.146273 0.064040 0.076830 -0.348230 -0.239990 
0.155140 12.113870 -2.000240 110.673899 -78.912176 -158.749861 -16.798022 9.706567 7.069852 21.047200 -30.472384 -54.496521 27.550343 -18.661436 88.968422 2.555079 14.776114 -0.248791 0.689270 0.661010 0.707170 17.675451 -6.000741 4.311250 23.859769 12.745570 -55.451052 -7.378282 -3.198442 34.226372 -0.497253 -2.787879 3.254585 0.166940 -0.407780 0.038940 -2.405030 -5.710585 -10.679940 -10.055587 -0.677326 76.353662 8.600010 10.650244 11.475302 -1.166754 2.614841 -20.650598 -1.886087 -3.315927 72.699095 1.826880 2.331950 -7.704480 -15.852596 -43.160752 3.902641 -11.509178 -30.595921 -17.463523 86.617243 -46.267710 -46.889062 -3.540903 2.387687 0.561740 -0.295080 0.485190 0.094310 19.896572 41.810374 17.841842 38.221539 -0.076362 -3.108454 -4.103925 -0.421746 0.277797 2.639668 -1.212147 0.139330 0.040380 -0.392540 -0.183790 
0.177960 12.206380 -1.914110 109.748491 -76.068980 -155.580760 -16.742677 9.550828 6.963369 20.717199 -29.005979 -55.474108 26.804382 -17.588550 82.731509 2.325271 13.555248 0.042765 0.742560 0.766500 0.706190 17.766924 -5.858276 4.557644 29.363120 14.109280 -57.602253 -14.355674 -1.563280 37.795700 -0.707573 -3.617432 2.977744 0.166950 -0.412130 0.107800 -2.435839 -5.714746 -10.747656 -7.795907 -3.837684 75.669264 7.949266 9.176433 12.169415 -1.038380 4.079206 -20.377778 1.695550 -6.563320 70.328948 0.387700 1.408970 -8.705120 -13.214564 -44.531229 3.397580 -11.080724 -32.216683 -17.035012 93.831128 -47.688949 -53.342593 -3.552312 2.290971 0.488430 -0.283920 0.546560 0.161230 16.342726 41.577487 18.137576 36.826419 1.594059 -2.230002 -4.651995 -0.597036 0.262945 2.694871 -1.261378 0.248040 0.006810 -0.447590 -0.103390 
